Coordinates
version=1
nRows=10
nColumns=40
inDegrees=yes

Units are S.I. units (second, meters, Newtons, ...)
Angles are in degrees.

endheader
time	pelvis_tilt	pelvis_list	pelvis_rotation	pelvis_tx	pelvis_ty	pelvis_tz	hip_flexion_r	hip_adduction_r	hip_rotation_r	knee_angle_r	knee_angle_r_beta	ankle_angle_r	subtalar_angle_r	mtp_angle_r	hip_flexion_l	hip_adduction_l	hip_rotation_l	knee_angle_l	knee_angle_l_beta	ankle_angle_l	subtalar_angle_l	mtp_angle_l	lumbar_extension	lumbar_bending	lumbar_rotation	arm_flex_r	arm_add_r	arm_rot_r	elbow_flex_r	pro_sup_r	wrist_flex_r	wrist_dev_r	arm_flex_l	arm_add_l	arm_rot_l	elbow_flex_l	pro_sup_l	wrist_flex_l	wrist_dev_l
      5.49000000	     -6.44179359	     -4.86204390	     -3.02861875	      0.98678463	      0.90245874	      0.34139333	     23.90455328	     -8.43815096	     -1.88104743	     59.82555817	     59.82555817	      4.11119386	    -12.01640602	     -7.94495464	     24.09747493	     -1.38721747	     -2.67750089	     38.24149697	     38.24149697	     23.99154191	    -18.78233124	     13.11008438	    -12.15419340	      7.92523502	      4.07129235	      9.38990290	    -12.15578774	    -16.00810830	     22.23596563	     47.15454946	      0.00000000	      0.00000000	     30.03238768	    -21.13920823	      7.54301460	     36.28019960	     46.19070885	      0.00000000	      0.00000000
      5.51457143	     -6.39841377	     -4.88605233	     -3.60536698	      0.98523023	      0.90369424	      0.34006665	     25.32048332	     -8.24122732	     -1.33756736	     61.02555271	     61.02555271	      3.42543307	    -12.51829982	     -7.07267005	     23.40522339	     -1.47243199	     -3.22647385	     37.61833671	     37.61833671	     24.02900841	    -18.73369431	     13.08414825	    -12.25063543	      8.11329572	      3.48637580	      5.42799097	    -11.51958985	    -15.99609202	     20.75912081	     47.17932997	      0.00000000	      0.00000000	     32.15403693	    -21.51943235	      6.99670691	     37.89608147	     46.29598388	      0.00000000	      0.00000000
      5.53914286	     -6.36339441	     -5.06755258	     -4.27178546	      0.98363461	      0.90568924	      0.33933418	     26.55415765	     -7.86421652	     -1.02047046	     61.54699289	     61.54699289	      4.22673622	    -11.91892641	     -3.29763390	     22.54659692	     -1.80232438	     -3.88994578	     36.68898865	     36.68898865	     23.62841273	    -18.62486917	     12.08581086	    -12.48283012	      8.45265106	      3.15842431	      0.71578001	    -11.04260195	    -15.94316237	     21.60243316	     47.08915859	      0.00000000	      0.00000000	     33.63408953	    -21.84634334	      5.21269029	     41.34961228	     46.54781269	      0.00000000	      0.00000000
      5.56371429	     -6.42101197	     -5.14670993	     -4.99112473	      0.98182118	      0.90820549	      0.33910631	     27.57284045	     -7.52827599	     -0.75860081	     60.96053188	     60.96053188	      4.27608485	    -11.83932906	     -2.95383438	     21.63942075	     -2.01858205	     -4.57184066	     35.45404409	     35.45404409	     23.36651395	    -18.50459439	     12.16809107	    -12.51965492	      8.62667971	      2.66044686	     -2.84393512	    -10.62139800	    -15.87489687	     20.56159322	     47.09325543	      0.00000000	      0.00000000	     35.62625713	    -22.35160628	      4.70492256	     43.03888101	     46.63859186	      0.00000000	      0.00000000
      5.58828571	     -6.54935319	     -5.26985657	     -5.83253981	      0.97989666	      0.91097087	      0.33938488	     28.39745754	     -7.12242858	     -0.60699262	     59.44633774	     59.44633774	      4.67321385	    -11.37674193	     -2.90180217	     20.71798021	     -2.34760478	     -5.40522360	     34.07773769	     34.07773769	     22.97051232	    -18.34154161	     11.93245450	    -12.57676977	      8.85162075	      2.45749597	     -6.48890679	    -10.31506700	    -15.87853833	     20.32461256	     47.06487919	      0.00000000	      0.00000000	     37.38609212	    -22.82630308	      4.01432312	     45.47338661	     46.75100682	      0.00000000	      0.00000000
      5.61285714	     -6.78812903	     -5.38814040	     -6.77563965	      0.97777104	      0.91378237	      0.34027748	     29.07006610	     -6.67701926	     -0.56247500	     56.98821020	     56.98821020	      5.02858982	    -10.66519404	     -3.57049839	     19.82581211	     -2.72764250	     -6.36350518	     32.52617803	     32.52617803	     22.31010341	    -18.14352081	     11.25868372	    -12.52391538	      8.98835259	      2.14442056	    -10.06280054	    -10.09123009	    -15.92609944	     21.27772003	     46.98360134	      0.00000000	      0.00000000	     38.68342033	    -23.53617127	      3.10523120	     48.43231032	     46.88185682	      0.00000000	      0.00000000
      5.63742857	     -7.28978932	     -5.53937047	     -7.79864691	      0.97529631	      0.91614652	      0.34171553	     29.77487909	     -6.04692312	     -0.51789493	     53.73692217	     53.73692217	      5.64976464	     -9.81565903	     -3.68585620	     19.30032767	     -3.20145213	     -7.30185676	     31.15486808	     31.15486808	     22.03204377	    -17.85848486	     11.46101925	    -12.12036323	      9.22303393	      1.41324961	    -12.41447558	    -10.07655540	    -16.00092234	     20.83606857	     46.98587197	      0.00000000	      0.00000000	     40.23503626	    -24.71788321	      2.65813583	     49.29783520	     46.94626082	      0.00000000	      0.00000000
      5.66200000	     -7.43145088	     -5.60126188	     -8.90243135	      0.97318915	      0.91892537	      0.34346488	     29.52026830	     -5.61215285	     -0.70398351	     49.13879466	     49.13879466	      4.91286353	     -8.89147261	     -8.24734846	     18.07585012	     -3.53637284	     -8.51451446	     29.21066792	     29.21066792	     20.77011737	    -17.75090914	      9.29283852	    -12.32046692	      9.30785695	      1.22744721	    -16.05786668	    -10.14577245	    -15.37154433	     24.79224970	     46.69368582	      0.00000000	      0.00000000	     40.71922010	    -25.52158497	      1.04608779	     53.48467537	     47.14027738	      0.00000000	      0.00000000
      5.68657143	     -7.90544444	     -5.65184703	    -10.04296215	      0.97075155	      0.92091423	      0.34571380	     29.45826122	     -4.97028352	     -0.81516534	     44.19761295	     44.19761295	      5.41759370	     -7.09832123	     -8.14171057	     17.47299355	     -3.93027496	     -9.63251677	     27.80892614	     27.80892614	     20.54622602	    -17.40751621	      9.53695152	    -11.95402073	      9.39443767	      1.00714149	    -17.74388812	    -10.30232149	    -15.34959541	     24.48671044	     46.68896527	      0.00000000	      0.00000000	     42.13521119	    -26.30019721	      0.70726732	     54.33007935	     47.19007431	      0.00000000	      0.00000000
      5.71114286	     -8.16983318	     -5.60951105	    -11.17419913	      0.96848268	      0.92265907	      0.34826789	     28.85209771	     -4.47936080	     -1.19122406	     38.69187101	     38.69187101	      5.66136594	     -4.47785998	     -8.01927479	     16.67053819	     -4.17921750	    -10.76715729	     26.47632198	     26.47632198	     20.32248791	    -17.14969217	      9.55294904	    -11.84978944	      9.32540812	      0.99188980	    -19.21401964	    -10.41631533	    -15.33910740	     24.66352388	     46.66410080	      0.00000000	      0.00000000	     43.45195369	    -26.91769041	      0.29738659	     55.49702750	     47.24883280	      0.00000000	      0.00000000
